<svg width="36" height="35" viewBox="0 0 36 35" fill="none" xmlns="http://www.w3.org/2000/svg">
<circle opacity="0.2" cx="17.9478" cy="17.5" r="17" stroke="#333333"/>
<path d="M14.327 13.2769C14.3268 13.5971 14.1995 13.9041 13.9731 14.1304C13.7466 14.3568 13.4396 14.4838 13.1195 14.4837C12.7994 14.4835 12.4925 14.3561 12.2663 14.1296C12.04 13.903 11.913 13.5959 11.9132 13.2756C11.9134 12.9554 12.0407 12.6484 12.2671 12.4221C12.4936 12.1957 12.8006 12.0687 13.1207 12.0688C13.4408 12.069 13.7477 12.1964 13.9739 12.4229C14.2002 12.6495 14.3272 12.9566 14.327 13.2769ZM14.3632 15.3777H11.9494V22.9361H14.3632V15.3777ZM18.177 15.3777H15.7753V22.9361H18.1529V18.9698C18.1529 16.7602 21.0313 16.555 21.0313 18.9698V22.9361H23.4149V18.1487C23.4149 14.4239 19.1546 14.5627 18.1529 16.392L18.177 15.3777Z" fill="#333333"/>
</svg>
