<svg width="36" height="35" viewBox="0 0 36 35" fill="none" xmlns="http://www.w3.org/2000/svg">
<circle opacity="0.2" cx="17.9827" cy="17.5" r="17" stroke="#333333"/>
<path d="M24.2482 13.8604C23.7875 14.0642 23.299 14.1981 22.7987 14.2576C23.326 13.9421 23.7206 13.4456 23.9091 12.8606C23.4142 13.1552 22.8717 13.3617 22.3063 13.4734C21.9265 13.0668 21.4231 12.7972 20.8743 12.7064C20.3255 12.6157 19.7621 12.7088 19.2717 12.9714C18.7813 13.234 18.3914 13.6513 18.1625 14.1585C17.9336 14.6656 17.8787 15.2343 18.0061 15.7759C17.0027 15.7256 16.021 15.4647 15.1248 15.0102C14.2287 14.5557 13.4381 13.9177 12.8044 13.1377C12.5801 13.5232 12.4622 13.9613 12.4629 14.4073C12.4629 15.2827 12.9082 16.056 13.5853 16.5088C13.1846 16.4962 12.7927 16.3879 12.4423 16.1931V16.2245C12.4425 16.8075 12.6441 17.3725 13.0131 17.8237C13.3821 18.2749 13.8957 18.5846 14.4669 18.7002C14.095 18.8011 13.7049 18.816 13.3264 18.7437C13.4874 19.2455 13.8013 19.6844 14.2241 19.9989C14.6468 20.3134 15.1573 20.4877 15.6841 20.4975C15.1606 20.9088 14.5612 21.2128 13.9201 21.3923C13.2791 21.5717 12.609 21.6229 11.9481 21.5431C13.1017 22.2853 14.4446 22.6793 15.8162 22.678C20.4586 22.678 22.9973 18.8306 22.9973 15.494C22.9973 15.3853 22.9942 15.2754 22.9894 15.168C23.4836 14.8107 23.91 14.3681 24.2488 13.861L24.2482 13.8604Z" fill="#333333"/>
</svg>
