<svg width="36" height="35" viewBox="0 0 36 35" fill="none" xmlns="http://www.w3.org/2000/svg">
<circle opacity="0.2" cx="18.4653" cy="17.5" r="17" stroke="#333333"/>
<g clip-path="url(#clip0_1_259)">
<path d="M24.2241 14.1798C24.4999 15.2551 24.4999 17.4999 24.4999 17.4999C24.4999 17.4999 24.4999 19.7448 24.2241 20.8201C24.0708 21.4145 23.6225 21.8822 23.0546 22.0403C22.0233 22.3275 18.4654 22.3275 18.4654 22.3275C18.4654 22.3275 14.9093 22.3275 13.8762 22.0403C13.3059 21.8798 12.8581 21.4127 12.7067 20.8201C12.4309 19.7448 12.4309 17.4999 12.4309 17.4999C12.4309 17.4999 12.4309 15.2551 12.7067 14.1798C12.86 13.5854 13.3083 13.1177 13.8762 12.9596C14.9093 12.6724 18.4654 12.6724 18.4654 12.6724C18.4654 12.6724 22.0233 12.6724 23.0546 12.9596C23.6249 13.1201 24.0726 13.5872 24.2241 14.1798ZM17.2585 19.612L20.8792 17.4999L17.2585 15.3879V19.612Z" fill="#333333"/>
</g>
<defs>
<clipPath id="clip0_1_259">
<rect width="14.4828" height="14.4828" fill="white" transform="translate(11.224 10.2585)"/>
</clipPath>
</defs>
</svg>
