<svg width="113" height="100" viewBox="0 0 113 100" fill="none" xmlns="http://www.w3.org/2000/svg">
<rect opacity="0.2" width="113" height="100" rx="10" fill="#00A3E8"/>
<g clip-path="url(#clip0_125_8)">
<path d="M57.0354 32.271C56.8738 32.2698 56.7155 32.3164 56.5803 32.405C56.4451 32.4935 56.3392 32.6201 56.2757 32.7687C56.2123 32.9173 56.1942 33.0814 56.2238 33.2403C56.2534 33.3991 56.3293 33.5457 56.4419 33.6616C56.5546 33.7774 56.699 33.8574 56.857 33.8914C57.015 33.9254 57.1795 33.9119 57.3298 33.8526C57.4801 33.7933 57.6096 33.6909 57.7019 33.5583C57.7942 33.4256 57.8452 33.2687 57.8485 33.1071C57.8504 32.9987 57.8309 32.891 57.791 32.7902C57.7511 32.6894 57.6917 32.5974 57.6161 32.5197C57.5405 32.442 57.4503 32.38 57.3506 32.3373C57.2509 32.2946 57.1438 32.2721 57.0354 32.271Z" fill="#00A3E8"/>
<path d="M56.9893 37.1998C56.2353 37.1942 55.4876 37.3372 54.7888 37.6205C54.09 37.9039 53.4539 38.3221 52.9168 38.8513C52.3796 39.3804 51.952 40.0102 51.6582 40.7047C51.3645 41.3992 51.2104 42.1447 51.2047 42.8987C51.1991 43.6527 51.3421 44.4005 51.6254 45.0992C51.9088 45.798 52.327 46.4341 52.8562 46.9713C53.3854 47.5084 54.0152 47.9361 54.7096 48.2298C55.4041 48.5236 56.1496 48.6777 56.9036 48.6833H56.9475C58.4706 48.6888 59.9335 48.0891 61.0144 47.016C62.0953 45.943 62.7056 44.4845 62.7112 42.9614C62.7167 41.4383 62.117 39.9755 61.0439 38.8946C59.9709 37.8137 58.5124 37.2033 56.9893 37.1978V37.1998ZM56.9475 47.0446H56.9162C55.8282 47.0407 54.7865 46.6048 54.0199 45.8328C53.2534 45.0608 52.825 44.0159 52.8288 42.928C52.8327 41.8401 53.2686 40.7982 54.0406 40.0317C54.8126 39.2652 55.8575 38.8368 56.9454 38.8406H56.9768C57.5155 38.8426 58.0485 38.9506 58.5454 39.1585C59.0424 39.3664 59.4935 39.6702 59.873 40.0524C60.2526 40.4347 60.5531 40.888 60.7575 41.3864C60.9618 41.8848 61.0661 42.4186 61.0641 42.9572C61.0622 43.4959 60.9542 44.0289 60.7463 44.5259C60.5384 45.0228 60.2346 45.4739 59.8523 45.8535C59.4701 46.233 59.0168 46.5336 58.5184 46.7379C58.02 46.9423 57.4862 47.0465 56.9475 47.0446Z" fill="#00A3E8"/>
<path d="M60.5259 32.9045C60.4243 32.8685 60.3166 32.8529 60.2091 32.8585C60.1015 32.8642 59.996 32.891 59.8988 32.9374C59.8016 32.9838 59.7145 33.0488 59.6424 33.1289C59.5703 33.209 59.5147 33.3025 59.4787 33.404C59.4427 33.5056 59.4271 33.6132 59.4328 33.7208C59.4384 33.8284 59.4652 33.9338 59.5116 34.0311C59.558 34.1283 59.6231 34.2155 59.7032 34.2875C59.7832 34.3596 59.8767 34.4152 59.9783 34.4512C61.7442 35.0792 63.2704 36.2421 64.3444 37.7781C65.4185 39.3141 65.987 41.1467 65.9708 43.0209C65.9685 43.1296 65.988 43.2376 66.0279 43.3386C66.0678 43.4397 66.1275 43.5318 66.2033 43.6096C66.2792 43.6874 66.3697 43.7494 66.4698 43.7919C66.5698 43.8343 66.6773 43.8565 66.786 43.857C67.0024 43.8564 67.2098 43.7705 67.3632 43.6179C67.5166 43.4652 67.6036 43.2582 67.6053 43.0418C67.6254 40.8259 66.9544 38.6587 65.6856 36.8419C64.4168 35.025 62.6132 33.6487 60.5259 32.9045Z" fill="#00A3E8"/>
<path d="M61.979 59.8801C67.4344 52.8571 70.8455 49.1951 70.8915 43.05C70.9488 41.1922 70.6341 39.3416 69.9659 37.6071C69.2977 35.8727 68.2895 34.2893 67.0006 32.95C65.7117 31.6108 64.1681 30.5427 62.4604 29.8086C60.7528 29.0745 58.9157 28.6891 57.057 28.6752C55.1983 28.6613 53.3556 29.019 51.6372 29.7275C49.9188 30.4359 48.3593 31.4807 47.0505 32.8005C45.7417 34.1203 44.7098 35.6884 44.0157 37.4126C43.3216 39.1369 42.9792 40.9825 43.0086 42.841C42.9626 49.1512 46.4344 52.809 51.9294 59.8801C46.4553 60.6953 43.0086 62.7478 43.0086 65.2581C43.0086 66.9303 44.5637 68.4477 47.3854 69.5075C53.6092 71.499 60.2993 71.499 66.5231 69.5075C69.3448 68.4498 70.8999 66.9407 70.8999 65.2581C70.8915 62.7499 67.4406 60.6974 61.979 59.8801ZM44.6306 42.8535C44.6426 41.2376 44.9729 39.6399 45.6024 38.1517C46.2319 36.6634 47.1484 35.3137 48.2996 34.1796C49.4507 33.0455 50.814 32.1493 52.3115 31.5421C53.809 30.9349 55.4115 30.6286 57.0274 30.6406C58.6433 30.6527 60.241 30.9829 61.7293 31.6125C63.2175 32.242 64.5672 33.1585 65.7013 34.3097C66.8354 35.4608 67.7316 36.8241 68.3388 38.3216C68.946 39.8191 69.2524 41.4216 69.2403 43.0375C69.1964 48.8732 65.5804 52.4683 59.8073 59.9951C58.7769 61.337 57.8321 62.6057 56.9375 63.8473C56.045 62.6057 55.1191 61.36 54.074 59.9951C48.071 52.1548 44.5971 48.8293 44.641 42.8535H44.6306ZM56.9354 69.3591C49.8936 69.3591 44.6306 67.1936 44.6306 65.2581C44.6306 63.8222 47.7763 62.0079 53.0665 61.3809C54.2349 62.915 55.2612 64.3071 56.2666 65.7326C56.3422 65.8397 56.4424 65.9272 56.5588 65.9875C56.6751 66.0479 56.8043 66.0795 56.9354 66.0796C57.0665 66.0795 57.1957 66.0479 57.3121 65.9875C57.4285 65.9272 57.5287 65.8397 57.6043 65.7326C58.5992 64.328 59.6526 62.9004 60.8127 61.3809C66.0967 62.0079 69.2403 63.8222 69.2403 65.2581C69.2507 67.1936 63.9898 69.3591 56.9459 69.3591H56.9354Z" fill="#00A3E8"/>
</g>
<defs>
<clipPath id="clip0_125_8">
<rect width="27.8913" height="42" fill="white" transform="translate(43 29)"/>
</clipPath>
</defs>
</svg>
