<svg width="113" height="100" viewBox="0 0 113 100" fill="none" xmlns="http://www.w3.org/2000/svg">
<rect opacity="0.2" width="113" height="100" rx="10" fill="#00A3E8"/>
<g clip-path="url(#clip0_125_7)">
<path d="M76.994 45.0524C76.9894 45.0041 76.9796 44.9564 76.9647 44.9102C76.9552 44.8687 76.9419 44.8281 76.925 44.789C76.9057 44.7512 76.8825 44.7155 76.856 44.6824C76.8287 44.6429 76.7972 44.6064 76.762 44.5737C76.7515 44.5737 76.7452 44.5507 76.7348 44.5403L70.0023 39.3148V33.895C70.0023 33.3406 69.7821 32.809 69.3901 32.417C68.9981 32.025 68.4665 31.8048 67.9121 31.8048H60.3248L57.2773 29.4367C56.9127 29.1524 56.4636 28.998 56.0013 28.998C55.5389 28.998 55.0899 29.1524 54.7252 29.4367L51.6861 31.7944H44.0988C43.5444 31.7944 43.0128 32.0146 42.6208 32.4066C42.2288 32.7986 42.0086 33.3302 42.0086 33.8845V39.3127L35.2782 44.5382C35.2657 44.5382 35.2615 44.5612 35.2511 44.5716C35.2158 44.6043 35.1843 44.6407 35.157 44.6803C35.1305 44.7134 35.1073 44.7491 35.088 44.7869C35.0711 44.826 35.0578 44.8666 35.0483 44.9081C35.0335 44.9536 35.0237 45.0006 35.019 45.0482C35.019 45.0628 35.019 45.0753 35.019 45.09V68.8971C35.0222 69.343 35.1688 69.7762 35.4371 70.1324C35.4371 70.1324 35.4371 70.147 35.4371 70.1512L35.4601 70.17C35.6509 70.4226 35.8966 70.6285 36.1787 70.7723C36.4608 70.916 36.7718 70.9938 37.0883 70.9998H74.9017C75.2241 70.9979 75.5416 70.9214 75.8295 70.7763C76.1174 70.6313 76.3679 70.4216 76.5613 70.1637C76.5613 70.1637 76.5759 70.1637 76.5801 70.147C76.5843 70.1303 76.5801 70.1345 76.5801 70.1282C76.8484 69.772 76.995 69.3389 76.9981 68.8929V45.0963C77.0107 45.0816 76.994 45.067 76.994 45.0524ZM55.5801 30.5403C55.6989 30.4456 55.8463 30.3941 55.9981 30.3941C56.15 30.3941 56.2974 30.4456 56.4162 30.5403L58.0319 31.7944H53.9686L55.5801 30.5403ZM37.2743 69.5973L55.5801 55.3841C55.6991 55.2898 55.8464 55.2385 55.9981 55.2385C56.1499 55.2385 56.2972 55.2898 56.4162 55.3841L74.7261 69.5973H37.2743ZM75.6019 68.5062L57.2773 54.2784C56.9126 53.9945 56.4635 53.8403 56.0013 53.8403C55.539 53.8403 55.09 53.9945 54.7252 54.2784L36.3986 68.5062V46.1622L47.8694 55.0706C47.9422 55.127 48.0253 55.1685 48.1141 55.1928C48.2029 55.2171 48.2956 55.2236 48.3869 55.2121C48.4782 55.2005 48.5664 55.1711 48.6463 55.1255C48.7263 55.0799 48.7965 55.0189 48.8529 54.9462C48.9093 54.8735 48.9508 54.7903 48.9751 54.7015C48.9994 54.6128 49.0059 54.5201 48.9944 54.4287C48.9828 54.3374 48.9534 54.2493 48.9078 54.1693C48.8622 54.0894 48.8012 54.0192 48.7285 53.9628L37.0737 44.9123L41.9981 41.0852V46.4946C41.9981 46.5865 42.0163 46.6776 42.0514 46.7625C42.0866 46.8475 42.1382 46.9247 42.2032 46.9897C42.2682 47.0547 42.3454 47.1063 42.4304 47.1415C42.5153 47.1767 42.6064 47.1948 42.6984 47.1948C42.7903 47.1948 42.8814 47.1767 42.9663 47.1415C43.0513 47.1063 43.1285 47.0547 43.1935 46.9897C43.2585 46.9247 43.3101 46.8475 43.3453 46.7625C43.3804 46.6776 43.3986 46.5865 43.3986 46.4946V33.895C43.3986 33.7093 43.4723 33.5312 43.6036 33.3999C43.735 33.2686 43.9131 33.1948 44.0988 33.1948H67.9017C68.0874 33.1948 68.2655 33.2686 68.3968 33.3999C68.5281 33.5312 68.6019 33.7093 68.6019 33.895V46.4946C68.6019 46.6803 68.6757 46.8584 68.807 46.9897C68.9383 47.121 69.1164 47.1948 69.3021 47.1948C69.4878 47.1948 69.6659 47.121 69.7972 46.9897C69.9286 46.8584 70.0023 46.6803 70.0023 46.4946V41.0852L74.9205 44.9123L63.2448 53.9774C63.1704 54.0332 63.1078 54.1032 63.0607 54.1834C63.0137 54.2636 62.983 54.3523 62.9707 54.4445C62.9583 54.5366 62.9644 54.6303 62.9886 54.7201C63.0128 54.8099 63.0546 54.894 63.1117 54.9674C63.1687 55.0408 63.2398 55.1021 63.3208 55.1478C63.4019 55.1935 63.4911 55.2225 63.5835 55.2333C63.6759 55.2441 63.7694 55.2363 63.8588 55.2105C63.9481 55.1848 64.0314 55.1414 64.1038 55.0831L75.5998 46.1601V68.5041L75.6019 68.5062Z" fill="#00A3E8"/>
<path d="M64.4004 45.8048V43.0039C64.4004 41.3425 63.9078 39.7184 62.9847 38.3369C62.0617 36.9555 60.7497 35.8788 59.2147 35.243C57.6798 34.6072 55.9907 34.4408 54.3612 34.7649C52.7317 35.0891 51.2349 35.8891 50.06 37.0639C48.8852 38.2388 48.0852 39.7356 47.761 41.3651C47.4369 42.9946 47.6032 44.6837 48.239 46.2186C48.8749 47.7536 49.9516 49.0656 51.333 49.9886C52.7145 50.9117 54.3386 51.4044 56 51.4044C56.1857 51.4044 56.3638 51.3306 56.4951 51.1993C56.6265 51.0679 56.7002 50.8899 56.7002 50.7041C56.7002 50.5184 56.6265 50.3403 56.4951 50.209C56.3638 50.0777 56.1857 50.0039 56 50.0039C54.6156 50.0039 53.2622 49.5934 52.111 48.8242C50.9599 48.0551 50.0627 46.9618 49.5329 45.6827C49.0031 44.4036 48.8644 42.9962 49.1345 41.6383C49.4046 40.2804 50.0713 39.0332 51.0503 38.0542C52.0292 37.0752 53.2765 36.4085 54.6344 36.1384C55.9922 35.8683 57.3997 36.007 58.6788 36.5368C59.9579 37.0666 61.0511 37.9638 61.8203 39.115C62.5895 40.2661 63 41.6195 63 43.0039V45.8048C63 46.1762 62.8525 46.5324 62.5898 46.795C62.3272 47.0576 61.971 47.2052 61.5996 47.2052C61.2282 47.2052 60.872 47.0576 60.6093 46.795C60.3467 46.5324 60.1992 46.1762 60.1992 45.8048V43.0039C60.1992 42.8182 60.1254 42.6401 59.9941 42.5088C59.8628 42.3775 59.6847 42.3037 59.499 42.3037C59.3133 42.3037 59.1352 42.3775 59.0039 42.5088C58.8725 42.6401 58.7988 42.8182 58.7988 43.0039C58.7988 43.5579 58.6345 44.0994 58.3268 44.56C58.019 45.0206 57.5816 45.3796 57.0698 45.5916C56.558 45.8036 55.9948 45.859 55.4515 45.751C54.9082 45.6429 54.4091 45.3761 54.0174 44.9844C53.6257 44.5927 53.359 44.0937 53.2509 43.5504C53.1428 43.0071 53.1983 42.4439 53.4103 41.9321C53.6223 41.4203 53.9813 40.9829 54.4419 40.6751C54.9025 40.3674 55.444 40.2031 55.9979 40.2031C56.1836 40.2031 56.3618 40.1293 56.4931 39.998C56.6244 39.8667 56.6981 39.6886 56.6981 39.5029C56.6981 39.3172 56.6244 39.1391 56.4931 39.0078C56.3618 38.8765 56.1836 38.8027 55.9979 38.8027C55.314 38.8006 54.6399 38.9656 54.0342 39.2832C53.4285 39.6008 52.9095 40.0615 52.5223 40.6253C52.1351 41.189 51.8913 41.8388 51.8122 42.5182C51.7332 43.1975 51.8212 43.8859 52.0685 44.5235C52.3159 45.1611 52.7152 45.7287 53.2318 46.177C53.7483 46.6252 54.3665 46.9406 55.0326 47.0957C55.6987 47.2508 56.3926 47.241 57.054 47.067C57.7155 46.893 58.3244 46.5602 58.828 46.0974C58.9013 46.8103 59.2458 47.4678 59.7904 47.9338C60.3349 48.3998 61.0377 48.6385 61.7534 48.6006C62.4691 48.5628 63.1429 48.2512 63.6352 47.7304C64.1275 47.2096 64.4007 46.5194 64.3983 45.8027L64.4004 45.8048Z" fill="#00A3E8"/>
</g>
<defs>
<clipPath id="clip0_125_7">
<rect width="42.0021" height="42" fill="white" transform="translate(35 29)"/>
</clipPath>
</defs>
</svg>
