<svg width="113" height="100" viewBox="0 0 113 100" fill="none" xmlns="http://www.w3.org/2000/svg">
<rect opacity="0.2" width="113" height="100" rx="10" fill="#00A3E8"/>
<path d="M59.9064 29C59.6888 29 59.4801 29.0865 59.3262 29.2403C59.1724 29.3942 59.0859 29.6029 59.0859 29.8206C59.0859 30.0382 59.1724 30.2469 59.3262 30.4008C59.4801 30.5547 59.6888 30.6411 59.9064 30.6411C64.2669 30.6483 68.4467 32.3845 71.5293 35.4691C74.6118 38.5537 76.3457 42.735 76.3507 47.0962C76.3507 47.3138 76.4371 47.5225 76.5909 47.6764C76.7448 47.8303 76.9535 47.9167 77.1711 47.9167C77.3887 47.9167 77.5973 47.8303 77.7512 47.6764C77.905 47.5225 77.9915 47.3138 77.9915 47.0962C77.9859 42.2999 76.0791 37.7016 72.6889 34.3093C69.2987 30.9171 64.7019 29.0077 59.9064 29V29Z" fill="#00A3E8"/>
<path d="M72.2453 47.918C72.4626 47.918 72.671 47.8316 72.8247 47.678C72.9784 47.5243 73.0647 47.3158 73.0647 47.0985C73.0647 43.6072 71.6787 40.2587 69.2114 37.789C66.744 35.3194 63.3972 33.9305 59.9064 33.9277C59.6888 33.9277 59.4801 34.0142 59.3262 34.1681C59.1724 34.322 59.0859 34.5307 59.0859 34.7483C59.0859 34.9659 59.1724 35.1746 59.3262 35.3285C59.4801 35.4824 59.6888 35.5688 59.9064 35.5688C62.96 35.5722 65.8875 36.7869 68.0468 38.9464C70.206 41.1059 71.4205 44.034 71.4238 47.088C71.4227 47.1966 71.4432 47.3043 71.484 47.405C71.5248 47.5056 71.585 47.5972 71.6614 47.6744C71.7378 47.7516 71.8287 47.8128 71.929 47.8546C72.0292 47.8965 72.1367 47.918 72.2453 47.918Z" fill="#00A3E8"/>
<path d="M66.4887 47.096C66.4887 47.3136 66.5751 47.5223 66.729 47.6762C66.8828 47.8301 67.0915 47.9165 67.3091 47.9165C67.5267 47.9165 67.7354 47.8301 67.8893 47.6762C68.0431 47.5223 68.1295 47.3136 68.1295 47.096C68.1273 44.9154 67.2603 42.8248 65.7186 41.2829C64.1769 39.741 62.0866 38.8738 59.9064 38.8716C59.6888 38.8716 59.4801 38.958 59.3262 39.1119C59.1724 39.2658 59.0859 39.4745 59.0859 39.6921C59.0859 39.9098 59.1724 40.1185 59.3262 40.2724C59.4801 40.4262 59.6888 40.5127 59.9064 40.5127C61.6516 40.5143 63.3249 41.2085 64.559 42.4427C65.793 43.677 66.487 45.3505 66.4887 47.096Z" fill="#00A3E8"/>
<path d="M59.0874 44.6273C59.0874 44.8446 59.1737 45.0531 59.3274 45.2067C59.481 45.3604 59.6895 45.4468 59.9068 45.4468C60.3435 45.4473 60.7621 45.6211 61.0709 45.9299C61.3797 46.2387 61.5534 46.6574 61.5539 47.0942C61.5539 47.3118 61.6404 47.5205 61.7942 47.6744C61.9481 47.8283 62.1567 47.9147 62.3743 47.9147C62.5919 47.9147 62.8006 47.8283 62.9545 47.6744C63.1084 47.5205 63.1948 47.3118 63.1948 47.0942C63.1937 46.2223 62.8469 45.3865 62.2305 44.7701C61.6142 44.1536 60.7785 43.8068 59.9068 43.8057C59.799 43.8057 59.6923 43.8269 59.5928 43.8683C59.4932 43.9096 59.4027 43.9701 59.3266 44.0464C59.2505 44.1228 59.1902 44.2133 59.1492 44.313C59.1081 44.4127 59.0871 44.5195 59.0874 44.6273Z" fill="#00A3E8"/>
<path d="M51.3761 55.6384C51.3761 55.8004 51.328 55.9589 51.238 56.0937C51.148 56.2285 51.02 56.3335 50.8702 56.3955C50.7205 56.4576 50.5558 56.4738 50.3968 56.4422C50.2379 56.4105 50.0919 56.3325 49.9773 56.2179C49.8627 56.1032 49.7847 55.9572 49.753 55.7982C49.7214 55.6393 49.7377 55.4745 49.7997 55.3248C49.8617 55.175 49.9667 55.047 50.1015 54.957C50.2362 54.8669 50.3946 54.8188 50.5567 54.8188C50.7738 54.8194 50.9819 54.9059 51.1355 55.0595C51.289 55.2131 51.3755 55.4212 51.3761 55.6384Z" fill="#00A3E8"/>
<path d="M58.4791 70.011C60.3065 70.9027 62.367 71.2007 64.3722 70.8633C66.3773 70.5259 68.2269 69.5701 69.6621 68.1295L71.3573 66.434C71.5764 66.2154 71.7501 65.9557 71.8687 65.6697C71.9873 65.3838 72.0483 65.0773 72.0483 64.7678C72.0483 64.4583 71.9873 64.1518 71.8687 63.8659C71.7501 63.58 71.5764 63.3203 71.3573 63.1016L64.8064 56.5351C64.5879 56.316 64.3284 56.1423 64.0427 56.0237C63.757 55.9051 63.4508 55.8441 63.1414 55.8441C62.8321 55.8441 62.5259 55.9051 62.2402 56.0237C61.9545 56.1423 61.695 56.316 61.4765 56.5351L58.6923 59.3197C58.4377 59.5831 58.1015 59.7527 57.7383 59.8009C57.3752 59.8491 57.0064 59.7731 56.6919 59.5852C55.6872 58.945 54.7206 58.247 53.7969 57.4946C53.6283 57.356 53.4116 57.2901 53.1945 57.3112C52.9773 57.3324 52.7774 57.439 52.6388 57.6075C52.5002 57.7761 52.4343 57.9928 52.4554 58.21C52.4766 58.4272 52.5832 58.6271 52.7517 58.7657C53.7245 59.5609 54.7428 60.2987 55.8014 60.9755C56.4314 61.3634 57.1743 61.5264 57.9088 61.4379C58.6433 61.3495 59.3262 61.0148 59.8461 60.4884L62.6304 57.7037C62.6966 57.6373 62.7753 57.5846 62.8619 57.5486C62.9485 57.5126 63.0414 57.4941 63.1352 57.4941C63.229 57.4941 63.3218 57.5126 63.4085 57.5486C63.4951 57.5846 63.5738 57.6373 63.64 57.7037L70.193 64.2577C70.2594 64.3239 70.3121 64.4026 70.3481 64.4893C70.3841 64.5759 70.4026 64.6688 70.4026 64.7626C70.4026 64.8564 70.3841 64.9493 70.3481 65.0359C70.3121 65.1225 70.2594 65.2012 70.193 65.2675L68.4957 66.965C67.3026 68.1642 65.7646 68.9605 64.0968 69.2424C62.429 69.5243 60.7148 69.2777 59.194 68.5371C50.1628 64.0771 42.8684 56.7434 38.4563 47.6877C37.7152 46.1726 37.4685 44.4631 37.7509 42.8003C38.0333 41.1375 38.8306 39.6054 40.0303 38.4201L41.6899 36.7602C41.7562 36.6937 41.8348 36.641 41.9215 36.605C42.0081 36.5691 42.101 36.5506 42.1948 36.5506C42.2885 36.5506 42.3814 36.5691 42.468 36.605C42.5547 36.641 42.6333 36.6937 42.6996 36.7602L49.2547 43.3163C49.3211 43.3825 49.3738 43.4612 49.4098 43.5478C49.4457 43.6344 49.4642 43.7273 49.4642 43.8211C49.4642 43.9149 49.4457 44.0078 49.4098 44.0945C49.3738 44.1811 49.3211 44.2598 49.2547 44.326L46.4767 47.1128C45.9504 47.6328 45.6157 48.3158 45.5273 49.0504C45.4388 49.785 45.6018 50.528 45.9897 51.1581C46.4621 51.8981 46.9721 52.6215 47.5072 53.3302C47.5725 53.4158 47.6541 53.4878 47.7472 53.5419C47.8404 53.596 47.9432 53.6313 48.05 53.6457C48.1567 53.66 48.2653 53.6532 48.3694 53.6257C48.4735 53.5981 48.5712 53.5502 48.6569 53.4849C48.7425 53.4195 48.8144 53.338 48.8686 53.2448C48.9227 53.1517 48.9579 53.0488 48.9723 52.942C48.9867 52.8352 48.9799 52.7267 48.9523 52.6225C48.9247 52.5184 48.8769 52.4207 48.8115 52.3351C48.3057 51.6703 47.8207 50.9762 47.3713 50.2737C47.183 49.959 47.1067 49.5897 47.1549 49.226C47.2031 48.8624 47.3729 48.5258 47.6368 48.2709L50.4273 45.4884C50.6461 45.2698 50.8196 45.0102 50.938 44.7245C51.0564 44.4387 51.1173 44.1325 51.1173 43.8232C51.1173 43.5139 51.0564 43.2077 50.938 42.922C50.8196 42.6363 50.6461 42.3767 50.4273 42.1581L43.868 35.6041C43.6496 35.385 43.3901 35.2112 43.1044 35.0927C42.8187 34.9741 42.5124 34.9131 42.2031 34.9131C41.8938 34.9131 41.5875 34.9741 41.3018 35.0927C41.0161 35.2112 40.7566 35.385 40.5382 35.6041L38.8806 37.2619C37.4386 38.6901 36.4813 40.5351 36.1438 42.5366C35.8062 44.5381 36.1055 46.595 36.9994 48.4173C41.5698 57.7963 49.1251 65.3917 58.4791 70.011Z" fill="#00A3E8"/>
</svg>
